<?xml version="1.0" standalone="no"?>
<!DOCTYPE svg PUBLIC "-//W3C//DTD SVG 20010904//EN"
 "http://www.w3.org/TR/2001/REC-SVG-20010904/DTD/svg10.dtd">
<svg version="1.0" xmlns="http://www.w3.org/2000/svg"
 width="128.000000pt" height="128.000000pt" viewBox="0 0 128.000000 128.000000"
 preserveAspectRatio="xMidYMid meet">
<metadata>
Created by potrace 1.11, written by Peter Selinger 2001-2013
</metadata>
<g transform="translate(0.000000,128.000000) scale(0.100000,-0.100000)"
fill="#000000" stroke="none">
<path d="M198 1109 l-138 -69 0 -159 0 -159 26 -17 c20 -13 24 -22 19 -42 -4
-18 0 -31 17 -47 29 -29 66 -49 77 -41 5 3 12 -1 14 -7 4 -10 6 -10 6 0 1 14
41 56 41 42 0 -5 6 -7 14 -4 8 3 20 -4 28 -15 8 -12 17 -18 21 -15 7 7 138
-55 149 -71 5 -6 8 -6 8 0 0 7 3 7 8 0 7 -10 68 -46 77 -46 7 1 79 -33 85 -40
3 -3 26 -14 52 -25 25 -10 44 -23 41 -28 -4 -5 -1 -6 6 -2 13 9 43 -18 33 -29
-4 -5 -1 -5 6 -1 7 4 21 4 33 1 16 -5 19 -13 15 -36 -2 -17 0 -29 7 -29 5 0 8
-3 4 -6 -3 -3 7 -17 22 -30 28 -23 75 -32 84 -16 3 4 26 7 50 7 25 0 44 2 41
4 -5 5 181 105 219 117 15 5 17 19 16 98 0 59 -7 109 -18 141 -15 45 -24 53
-77 82 -32 18 -65 31 -71 28 -10 -3 -13 11 -13 50 l0 55 -380 190 c-209 104
-381 190 -382 189 -2 0 -65 -31 -140 -70z"/>
<path d="M270 561 c0 -6 4 -12 8 -15 5 -3 9 1 9 9 0 8 -4 15 -9 15 -4 0 -8 -4
-8 -9z"/>
<path d="M324 559 c-3 -6 -1 -16 5 -22 9 -9 10 -7 5 7 -6 15 -4 17 6 11 9 -5
11 -4 6 3 -9 15 -13 15 -22 1z"/>
<path d="M396 527 c3 -10 9 -15 12 -12 3 3 0 11 -7 18 -10 9 -11 8 -5 -6z"/>
<path d="M356 519 c2 -4 -1 -9 -8 -11 -7 -3 -5 -7 6 -11 11 -5 15 -3 10 5 -5
7 -2 9 9 5 10 -4 14 -2 11 7 -3 7 -11 13 -19 13 -8 0 -12 -4 -9 -8z"/>
<path d="M494 442 c0 -10 8 -18 16 -18 9 0 17 6 17 13 0 7 -3 11 -5 8 -3 -3
-10 -1 -16 5 -8 6 -12 3 -12 -8z"/>
<path d="M587 427 c-3 -7 3 -13 14 -13 13 0 15 3 7 13 -6 7 -12 13 -13 13 -2
0 -5 -6 -8 -13z"/>
<path d="M588 383 c7 -3 16 -2 19 1 4 3 -2 6 -13 5 -11 0 -14 -3 -6 -6z"/>
<path d="M627 373 c3 -7 8 -13 12 -13 4 0 8 6 8 13 0 8 -6 14 -13 14 -7 0 -10
-6 -7 -14z"/>
<path d="M661 373 c-1 -6 6 -19 15 -27 19 -19 31 -21 15 -3 -6 8 -7 18 -3 22
4 5 2 5 -5 2 -6 -4 -14 -1 -16 5 -4 9 -6 9 -6 1z"/>
<path d="M748 303 c7 -3 16 -2 19 1 4 3 -2 6 -13 5 -11 0 -14 -3 -6 -6z"/>
<path d="M786 297 c3 -10 9 -15 12 -12 3 3 0 11 -7 18 -10 9 -11 8 -5 -6z"/>
<path d="M1175 269 c-4 -6 -5 -12 -2 -15 2 -3 7 2 10 11 7 17 1 20 -8 4z"/>
<path d="M1116 262 c-3 -5 1 -9 9 -9 8 0 12 4 9 9 -3 4 -7 8 -9 8 -2 0 -6 -4
-9 -8z"/>
<path d="M1095 230 c-3 -6 1 -7 9 -4 18 7 21 14 7 14 -6 0 -13 -4 -16 -10z"/>
<path d="M1002 200 c-7 -11 -8 -20 -3 -20 9 0 24 30 18 36 -1 2 -8 -6 -15 -16z"/>
<path d="M1055 210 c-4 -6 -11 -7 -17 -4 -7 4 -8 2 -4 -5 6 -9 11 -9 22 0 14
11 18 19 10 19 -3 0 -8 -5 -11 -10z"/>
</g>
</svg>
